<?xml version="1.0" standalone="no"?>
<!DOCTYPE svg PUBLIC "-//W3C//DTD SVG 20010904//EN"
 "http://www.w3.org/TR/2001/REC-SVG-20010904/DTD/svg10.dtd">
<svg version="1.0" xmlns="http://www.w3.org/2000/svg"
 width="512.000000pt" height="512.000000pt" viewBox="0 0 512.000000 512.000000"
 preserveAspectRatio="xMidYMid meet">
<metadata>
Created by potrace 1.11, written by Peter Selinger 2001-2013
</metadata>
<g transform="translate(0.000000,512.000000) scale(0.100000,-0.100000)"
fill="#000000" stroke="none">
<path d="M393 5106 c-186 -45 -348 -215 -382 -400 -16 -85 -15 -4224 0 -4298
40 -192 212 -361 404 -398 44 -8 634 -10 2180 -8 l2120 3 58 22 c152 57 263
168 320 320 l22 58 3 2120 c2 1546 0 2136 -8 2180 -37 192 -206 364 -398 404
-81 17 -4248 14 -4319 -3z m1841 -2263 c-4 -671 -9 -884 -19 -938 -48 -250
-201 -421 -430 -480 -86 -22 -253 -20 -349 5 -249 63 -400 263 -423 558 l-6
83 144 -3 144 -3 6 -71 c11 -117 42 -194 106 -258 58 -59 113 -80 209 -81 70
0 88 4 139 30 100 51 163 157 185 310 6 41 10 409 10 893 l0 822 145 0 145 0
-6 -867z m1373 852 c120 -23 233 -83 318 -169 78 -79 121 -153 157 -266 20
-66 23 -95 23 -245 0 -188 -10 -245 -67 -364 -43 -90 -159 -206 -248 -249
-129 -60 -157 -64 -487 -69 l-303 -5 0 -444 0 -444 -145 0 -145 0 0 1135 0
1135 409 0 c320 0 426 -3 488 -15z"/>
<path d="M3000 3020 l0 -450 233 0 c318 0 393 18 484 112 54 56 89 133 103
233 20 130 -5 288 -57 374 -30 48 -98 112 -143 136 -71 36 -146 45 -392 45
l-228 0 0 -450z"/>
</g>
</svg>
