<?xml version="1.0" encoding="utf-8"?>
<!-- Generator: Adobe Illustrator 16.0.0, SVG Export Plug-In . SVG Version: 6.00 Build 0)  -->
<!DOCTYPE svg PUBLIC "-//W3C//DTD SVG 1.1//EN" "http://www.w3.org/Graphics/SVG/1.1/DTD/svg11.dtd">
<svg version="1.1" xmlns="http://www.w3.org/2000/svg" xmlns:xlink="http://www.w3.org/1999/xlink" x="0px" y="0px"
	 width="1041.32px" height="554.17px" viewBox="0 0 1041.32 554.17" enable-background="new 0 0 1041.32 554.17"
	 xml:space="preserve">
<g id="_x35_9725d3d-bdd8-4af0-9b66-49b8d09410bc">
	<title>programming</title>
	<path opacity="0.1" fill="#1B1B1B" enable-background="new    " d="M961.48,438.21c-1.16,2.5-2.317,4.967-3.471,7.4
		c-1.8,3.779-3.576,7.486-5.33,11.12c-0.779,1.609-1.56,3.189-2.319,4.77c-8.601,17.57-16.63,33.11-23.45,45.89
		c-12.605,23.587-37.068,38.424-63.811,38.7l-151.649,1.65h-1.601l-13,0.14L685.73,548l-34.101,0.37h-1.38l-17.36,0.189h-0.529
		l-107,1.16l-95.511,1l-11.109,0.12l-69,0.75h-0.08l-44.75,0.48h-0.48l-141.5,1.529l-42.33,0.46
		c-9.033,0.103-18.029-1.186-26.67-3.819c-15.038-4.543-28.553-13.1-39.09-24.75c-18.18-20.03-31.43-43.4-40.33-68.76
		c-1.287-3.66-2.486-7.367-3.6-11.12C-19.9,341.46,17.66,207.09,85.26,117.17c2.833-3.76,5.713-7.427,8.64-11l0.07-0.08
		c20.79-25.52,44.1-46.84,68.93-62c44-26.91,92.75-34.49,140.7-11.9c40.57,19.12,78.45,28.11,115.169,30.55
		c3.711,0.24,7.421,0.42,11.11,0.53c84.23,2.65,163.17-27.7,255.87-47.29c3.689-0.78,7.39-1.55,11.12-2.28
		C763,0.54,836.36-6.4,923.6,8.19c9.064,1.481,18.008,3.62,26.761,6.4c3.847,1.24,7.553,2.573,11.12,4
		c41.64,16.94,64.35,48.24,74,87.46c0.913,3.64,1.703,7.344,2.369,11.11C1054.96,211.5,1004.85,345.32,961.48,438.21z"/>
	<g opacity="0.1">
		<path fill="#1B1B1B" d="M162.9,44.09v509.62l-42.33,0.46c-9.033,0.103-18.028-1.187-26.67-3.82V106.09h0.07
			C114.76,80.54,138.07,59.22,162.9,44.09z"/>
		<path fill="#1B1B1B" d="M1037.9,117.17H85.26c2.833-3.76,5.713-7.427,8.64-11v-0.08h941.63
			C1036.443,109.71,1037.233,113.403,1037.9,117.17z"/>
		<path fill="#1B1B1B" d="M961.48,18.6v427h-3.471c-1.8,3.78-3.576,7.487-5.33,11.12c-0.779,1.61-1.56,3.19-2.319,4.771V14.56
			C954.207,15.8,957.913,17.146,961.48,18.6z"/>
		<path fill="#1B1B1B" d="M696.87,13.67v534.25l-11.12,0.12V15.95C689.44,15.17,693.14,14.4,696.87,13.67z"/>
		<path fill="#1B1B1B" d="M429.88,63.24V550.82l-11.11,0.119V62.71C422.48,62.95,426.19,63.09,429.88,63.24z"/>
		<path fill="#1B1B1B" d="M958.01,445.61c-1.8,3.779-3.576,7.486-5.33,11.12H14.51c-1.287-3.66-2.486-7.367-3.6-11.12H958.01z"/>
	</g>
	<rect x="211.6" y="265.83" fill="#3F3D56" width="19" height="57.66"/>
	<rect x="722.93" y="262.83" fill="#3F3D56" width="19" height="61"/>
	<polygon fill="#65617D" points="863.1,533.65 863.1,546.65 711.18,548.05 709.56,548.08 651.82,548.61 650.44,548.63 
		632.89,548.78 632.37,548.78 525.39,549.77 349.78,551.4 349.63,551.4 304.98,551.82 304.5,551.83 106.1,553.65 106.1,538.65 
		152.75,510.65 246.35,509.87 248.35,509.86 249.01,509.85 251.01,509.82 295.95,509.45 297.96,509.44 298.6,509.43 300.6,509.42 
		315.01,509.3 315.39,509.29 350.94,508.99 351.23,508.99 628.63,506.65 635.42,506.6 636.1,506.6 641.28,506.55 678.93,506.24 
		680.93,506.21 682.78,506.19 683.74,506.19 695.45,506.1 697.77,506.07 700.88,506.05 710.63,505.96 726.1,505.83 728.1,505.81 
		731.58,505.79 732.23,505.79 806.94,505.15 	"/>
	<polygon opacity="0.2" enable-background="new    " points="863.1,533.65 863.1,546.65 711.18,548.05 709.56,548.08 651.82,548.61 
		650.44,548.63 632.89,548.78 632.37,548.78 525.39,549.77 349.78,551.4 349.63,551.4 304.98,551.82 304.5,551.83 106.1,553.65 
		106.1,538.65 152.75,510.65 246.35,509.87 248.35,509.86 249.01,509.85 251.01,509.82 295.95,509.45 297.96,509.44 298.6,509.43 
		300.6,509.42 315.01,509.3 315.39,509.29 350.94,508.99 351.23,508.99 628.63,506.65 635.42,506.6 636.1,506.6 641.28,506.55 
		678.93,506.24 680.93,506.21 682.78,506.19 683.74,506.19 695.45,506.1 697.77,506.07 700.88,506.05 710.63,505.96 726.1,505.83 
		728.1,505.81 731.58,505.79 732.23,505.79 806.94,505.15 	"/>
	<path fill="#3F3D56" d="M296.1,483.66v24.49c0.001,2.367-1.361,4.523-3.5,5.539c-0.78,0.379-1.633,0.583-2.5,0.601l-34.9,0.74
		c-0.932,0.022-1.856-0.173-2.7-0.57c-2.178-0.998-3.573-3.175-3.57-5.57V483.66H296.1z"/>
	<path opacity="0.1" enable-background="new    " d="M296.1,483.66v24.49c0.001,2.367-1.361,4.523-3.5,5.539
		c-0.78,0.379-1.633,0.583-2.5,0.601l-34.9,0.74c-0.932,0.022-1.856-0.173-2.7-0.57c-2.178-0.998-3.573-3.175-3.57-5.57V483.66
		H296.1z"/>
	<path fill="#3F3D56" d="M298.1,483.66v24.49c0.001,2.367-1.361,4.523-3.5,5.539c-0.78,0.379-1.633,0.583-2.5,0.601l-34.9,0.74
		c-0.932,0.022-1.856-0.173-2.7-0.57c-2.178-0.998-3.573-3.175-3.57-5.57V483.66H298.1z"/>
	<rect x="680.93" y="483.66" fill="#3F3D56" width="47.17" height="31.5"/>
	<rect x="680.93" y="483.66" opacity="0.1" enable-background="new    " width="47.17" height="31.5"/>
	<rect x="678.93" y="483.66" fill="#3F3D56" width="47.17" height="31.5"/>
	<polygon opacity="0.1" enable-background="new    " points="230.6,265.82 230.6,271.55 211.6,271.06 211.6,265.82 	"/>
	<path fill="#65617D" d="M355.66,104.4l-22.83,164c-0.3,2.169-2.181,3.766-4.37,3.71l-182.8-4.74l-3.47-0.09
		c-2.374-0.056-4.253-2.026-4.197-4.4c0.004-0.157,0.016-0.314,0.037-0.469l25.63-171.68c0.342-2.205,2.314-3.781,4.54-3.63
		l183.46,12.42c2.365,0.137,4.171,2.166,4.034,4.531C355.688,104.168,355.676,104.284,355.66,104.4z"/>
	<polygon fill="#1B1B1B" points="175.93,99.16 156.6,250.49 324.6,255.82 345.26,109.82 	"/>
	<path fill="#65617D" d="M389.93,96.82h194.01c2.943,0,5.329,2.387,5.329,5.33v162.67c0,2.944-2.386,5.33-5.329,5.33H389.93
		c-2.944,0-5.33-2.386-5.33-5.33V102.15C384.6,99.207,386.986,96.82,389.93,96.82z"/>
	<rect x="394.26" y="108.49" fill="#1B1B1B" width="186" height="144.33"/>
	<polygon opacity="0.1" enable-background="new    " points="741.93,262.82 741.93,266.61 722.93,267 722.93,262.82 	"/>
	<path fill="#65617D" d="M827.66,259.62c0.111,1.697-1.176,3.163-2.873,3.274c-0.042,0.002-0.085,0.004-0.127,0.005l-187.2,3.87
		c-1.613,0.033-2.979-1.184-3.13-2.79L618.24,96.7c-0.162-1.693,1.079-3.198,2.772-3.36c0.049-0.004,0.098-0.008,0.147-0.01
		l185.78-9.24l2-0.1c1.652-0.087,3.076,1.151,3.22,2.8L827.66,259.62z"/>
	<polygon fill="#1B1B1B" points="628.93,103.16 798.6,94.82 812.93,246.82 644.6,250.82 	"/>
	<path opacity="0.1" enable-background="new    " d="M827.66,259.62c0.111,1.697-1.176,3.163-2.873,3.274
		c-0.042,0.002-0.085,0.004-0.127,0.005L806.94,84.09l2-0.1c1.652-0.087,3.076,1.151,3.22,2.8L827.66,259.62z"/>
	<path opacity="0.1" enable-background="new    " d="M168.23,87.09l-22.57,180.28l-3.47-0.09c-2.374-0.056-4.253-2.026-4.197-4.4
		c0.004-0.157,0.016-0.314,0.037-0.469l25.63-171.68C163.999,88.509,165.99,86.923,168.23,87.09z"/>
	<rect x="211.6" y="306.41" opacity="0.1" enable-background="new    " width="19" height="17.08"/>
	<polygon opacity="0.1" enable-background="new    " points="298.1,483.65 298.1,488.62 250.93,489.88 250.93,483.65 	"/>
	<path fill="#65617D" d="M381.35,312.36V480.56c-0.025,2.133-1.719,3.87-3.85,3.95l-191.65,5.101h-0.05
		c-2.17-0.027-3.923-1.78-3.95-3.95v-173.3c0.027-2.171,1.78-3.924,3.95-3.95h191.6C379.57,308.437,381.323,310.189,381.35,312.36z"
		/>
	<path opacity="0.1" enable-background="new    " d="M185.85,308.41v181.2h-0.05c-2.17-0.027-3.923-1.78-3.95-3.95v-173.3
		c0.027-2.171,1.78-3.924,3.95-3.95H185.85z"/>
	<polygon fill="#D4DFEC" points="194.6,319.15 372.1,319.15 372.1,467.4 194.6,471.4 	"/>
	<rect x="722.93" y="306.41" opacity="0.1" enable-background="new    " width="19" height="17.42"/>
	<polygon opacity="0.1" enable-background="new    " points="726.1,483.65 726.1,490.06 678.93,488.8 678.93,483.65 	"/>
	<path fill="#65617D" d="M788.35,312.36v173.3c-0.027,2.189-1.81,3.95-4,3.95l0,0L592.66,484.51c-2.131-0.08-3.825-1.817-3.851-3.95
		V312.36c0.027-2.171,1.78-3.924,3.95-3.95H784.36C786.546,308.415,788.322,310.174,788.35,312.36z"/>
	<path opacity="0.1" enable-background="new    " d="M788.35,312.36v173.3c-0.027,2.189-1.81,3.95-4,3.95l0,0v-181.2l0,0
		C786.54,308.41,788.322,310.17,788.35,312.36z"/>
	<polygon fill="#D4DFEC" points="775.6,319.15 598.1,319.15 598.1,467.4 775.6,471.4 	"/>
	<path fill="#65617D" d="M583.85,312.36V480.56c-0.024,2.133-1.719,3.87-3.85,3.95l-191.65,5.101l0,0c-2.19,0-3.973-1.761-4-3.95
		v-173.3c0.027-2.171,1.78-3.924,3.95-3.95H579.9C582.07,308.437,583.823,310.189,583.85,312.36z"/>
	<polygon fill="#D4DFEC" points="397.1,319.15 574.6,319.15 574.6,467.4 397.1,471.4 	"/>
	<polygon opacity="0.1" enable-background="new    " points="863.1,533.65 863.1,546.65 711.18,548.05 709.56,548.08 651.82,548.61 
		650.44,548.63 632.89,548.78 632.37,548.78 525.39,549.77 349.78,551.4 349.63,551.4 304.98,551.82 304.5,551.83 106.1,553.65 
		106.1,538.65 308.61,537.32 309.09,537.32 350.08,537.04 350.27,537.04 633.35,535.17 633.64,535.17 633.81,535.16 634.28,535.16 
		639.07,535.13 640.53,535.13 715.02,534.63 719.42,534.61 720.4,534.6 	"/>
	<circle fill="#FBBEBE" cx="487.26" cy="272.16" r="51.33"/>
	
		<linearGradient id="SVGID_1_" gradientUnits="userSpaceOnUse" x1="743.7852" y1="-326.27" x2="743.7852" y2="51.186" gradientTransform="matrix(1 0 0 -1 -225.3398 226.2598)">
		<stop  offset="0" style="stop-color:#808080;stop-opacity:0.25"/>
		<stop  offset="0.54" style="stop-color:#808080;stop-opacity:0.12"/>
		<stop  offset="1" style="stop-color:#808080;stop-opacity:0.1"/>
	</linearGradient>
	<path fill="url(#SVGID_1_)" d="M304.4,552.18c0-0.109,0.06-0.229,0.1-0.35c1-3.59,2.78-9.66,4.11-14.51
		c0.17-0.601,0.33-1.19,0.48-1.75c1.47-5.471,4.33-18.28,5.92-26.271c0.56-2.81,1-5,1.09-6.1c0.2-1.69,3.21-8.92,6.62-17.23
		c2.39-5.84,5-12.22,6.91-17.6c1.25-3.195,2.23-6.49,2.93-9.85c0.15-0.702,0.15-1.429,0-2.131c-0.3-1.143-0.461-2.317-0.48-3.5l0,0
		c-0.23-6.199,1.62-16,4.48-20.109c3.5-5,6-23.66,6-23.66s5.18,0.75,6-3.53c0.086-0.461,0.12-0.931,0.1-1.399
		c-0.002-0.372-0.032-0.743-0.09-1.11c-0.89-6.24,14.72-12.88,23.5-14.31c0.992-0.17,1.995-0.264,3-0.28
		c2.133-0.232,4.231-0.716,6.25-1.44c0.934-0.286,1.934-0.62,3-1c3.68-1.239,8.08-2.88,12.75-4.68c17.56-6.81,38.819-16,38.819-16
		c0.15-0.71,0.32-1.39,0.511-2.06c2.13-8.551,8.199-15.579,16.35-18.931l0,0c0-0.66,0-1.33,0-2c0-3.45-0.15-7-0.3-10.54
		c0-0.689-0.061-1.38-0.101-2.069c0-0.2,0-0.41,0-0.61s0-0.35,0-0.521c0-0.699-0.069-1.399-0.109-2.09l-0.181-0.14
		c-1.536-1.16-2.856-2.582-3.899-4.2c-0.581-0.945-1.058-1.951-1.42-3c-1.25-3.39-1.54-7.17-2.38-10.75l-0.181-0.74
		c-1.094-3.612-2.43-7.146-4-10.58c-2.21-5.42-3.909-11-5.6-16.649c-1.026-3.42-2.063-6.847-3.11-10.28l-1.58-5.24
		c-0.3-1-0.6-2-0.829-3l0,0c-0.112-0.462-0.199-0.929-0.261-1.4l0,0c-0.28-1.535-0.198-3.113,0.24-4.61
		c0.389-1.021,0.829-2.023,1.32-3c0.209-0.443,0.376-0.905,0.5-1.38l0,0c0.032-0.105,0.059-0.212,0.08-0.32
		c0.071-0.356,0.107-0.717,0.109-1.08c-0.034-1.312-0.209-2.616-0.52-3.89c-0.007-0.016-0.007-0.034,0-0.05
		c-0.012-0.091-0.028-0.181-0.05-0.27c-0.18-0.992-0.3-1.994-0.36-3c-0.352-5.415,0.853-10.817,3.47-15.57l0.19-0.36
		c0.551-0.966,1.166-1.895,1.84-2.78l0,0c0.31-0.42,0.63-0.82,1-1.22c-1.4,1.34-3.7,0.75-5-0.69c-0.215-0.225-0.399-0.477-0.55-0.75
		c-0.087-0.145-0.164-0.295-0.23-0.45c-0.05-0.12-0.09-0.25-0.13-0.38c-0.7-2.45,0.521-5.06,2.12-7.05
		c1.576-1.938,3.529-3.537,5.74-4.7l0,0c0.129-0.078,0.263-0.148,0.399-0.21c0.85-0.426,1.732-0.78,2.641-1.06l0,0
		c0.534-0.177,1.079-0.324,1.63-0.44l-3.71-0.34l-1.5-0.14c1.527-6.06,6.768-10.457,13-10.91h1.08
		c0.525,0.008,1.05,0.052,1.569,0.13c-1.702-0.747-2.76-2.475-2.649-4.33c2.618,2.05,5.865,3.131,9.189,3.06h0.381
		c-0.174-1.083-0.287-2.175-0.341-3.27l0,0l0,0l0,0c-0.1-1.485-0.1-2.975,0-4.46c1.814,1.72,4.297,2.548,6.78,2.26l-2.08-2.9
		c1.854,1.479,4.194,2.21,6.561,2.05l0.479-0.05c0.402-0.042,0.801-0.119,1.19-0.23h0.09c-0.19-0.24-0.36-0.49-0.53-0.75l-0.06-0.12
		c-0.416-0.654-0.752-1.355-1-2.09c-0.101-0.284-0.181-0.575-0.24-0.87l0,0c-0.437-1.818-0.278-3.728,0.45-5.45
		c3.229,2.7,6.77,6.39,11,3.6c4.229-2.79,4.37-7.91,11-7.39c3.711,0.35,6.936,2.696,8.41,6.12c1.917-2.167,5.002-2.871,7.67-1.75
		c2.622,1.243,4.176,4.003,3.88,6.89c2.75-0.69,5.71-1.37,8.35-0.33s4.34,4.41,2.84,6.66c-0.041,0.07-0.088,0.137-0.14,0.2
		c-1.23,1.59-3.95,2.46-3.66,4.46l0.42,0.3l1.3,0.94l0,0c5.101,3.68,10.067,7.547,14.9,11.6c2.479,2.08,5.12,4.58,5.29,7.83
		c0.029,0.797-0.051,1.595-0.24,2.37l0,0c-0.16,0.78-0.38,1.56-0.55,2.34c-0.428,1.986-0.543,4.028-0.34,6.05l0,0
		c0.069,0.59,0.16,1.17,0.27,1.76c1.53,7.73,7.71,14.11,8.32,22v0.56c0.037,0.844,0.014,1.689-0.07,2.53
		c-0.46,4.8-2.68,9.41-4.479,14c-0.11,0.28-0.22,0.56-0.32,0.84c-3.47,9-5.47,18.59-7,28.16c-0.493,3.396-1.161,6.764-2,10.091
		c-0.912,3.807-2.65,7.367-5.09,10.43c-0.976,1.151-2.106,2.161-3.36,3c-0.844,0.54-1.73,1.012-2.649,1.41c0,0,0,0,0,0.06
		c0.109,0.61,0.199,1.22,0.31,1.83c0.06,0.32,0.11,0.64,0.17,1l0,0c-0.004,0.02-0.004,0.04,0,0.06c0.84,4.73,1.8,9.36,2.811,13.761
		l0.51,2.189c12.6,4.55,14.09,13.87,14.18,17.44c0.035,0.476,0.035,0.954,0,1.43c0,0,19,0.5,26.5,6
		c1.401,0.951,2.917,1.725,4.51,2.3c3.024,1.143,6.113,2.108,9.25,2.891c1.61,0.42,3.29,0.83,5,1.229c3,0.69,6.181,1.36,9.25,2
		c8.19,1.65,15.9,3,19.811,4c9.33,2.36,30.67,22.82,30.67,22.82s2.5,20.64,5,23.65c2.5,3.01,7,13.59,7,13.59l16.54,29.41l7,12.369
		h4.5c0.62,0,1.84,0.881,3.21,2.101c1.189,1.06,2.51,2.38,3.67,3.58l1.92,2.05l1.2,1.33c0,0,7.27,0.18,9.24,5.93
		c5.92-0.17,13.189,0.22,18.279,2.5c0.695,0.306,1.363,0.667,2,1.08c2.111,1.223,3.61,3.277,4.13,5.66
		c0.103,0.474,0.162,0.955,0.181,1.439c0,0.57,0,1.141,0,1.7c-0.36,7.57-5.29,13.87-9.82,18.11l0.32,0.57c0,0-0.15,0.359-0.44,1
		c-0.08,0.189-0.18,0.399-0.29,0.64l0,0c-0.59,1.26-1.529,3.15-2.76,5.36c-2.61,4.783-5.826,9.21-9.57,13.17l-0.29,0.3l-57.739,0.53
		l-0.17-0.2l-11.2-13.36l-5.57-6.64l-0.17-0.21l-0.16,1.59l-0.54,5.3l-1.3,12.81l-0.07,0.641v0.17l-0.149,1.479l0.109-1.479h-0.29
		l-107,1l-175.62,1.939v0.841h-0.14v-0.841l-44.75,0.48L304.4,552.18z"/>
	<path fill="#FBBEBE" d="M538.6,377.16c0,0-99.5,12-90,0c3.44-4.34,4.391-17.2,4.2-31.851c-0.06-4.449-0.22-9.06-0.45-13.649
		c-1.1-22-3.75-43.5-3.75-43.5s87-41,77-8.5c-4,13.13-2.689,31.57,0.351,48.88c0.89,5.05,1.92,10,3,14.7
		C531.586,354.704,534.807,366.025,538.6,377.16z"/>
	<path opacity="0.1" enable-background="new    " d="M538.6,377.16c0,0-99.5,12-90,0c3.44-4.34,4.391-17.2,4.2-31.851
		c15.17-6.479,34.47-1.649,34.47-1.649c20.32-4.05,33.351-3.26,41.681-0.42C531.586,354.704,534.807,366.025,538.6,377.16z"/>
	<path fill="#1B1B1B" d="M349.74,552.53v-0.841l175.62-1.909l107-1h0.3l-0.11,1.479l0.15-1.479h0.189v-0.17l1.37-13.45l0.521-5.09
		l0.16-1.591l0.14-1.329l6.18-20.61l6.181-20.58l5.199-17.33l7.94-26.479c0,0-4.5-10.5-7-13.5s-5-23.5-5-23.5
		s-21.34-20.33-30.67-22.671c-3.91-1-11.63-2.329-19.83-4c-3.07-0.619-6.22-1.279-9.25-2c-1.71-0.39-3.39-0.8-5-1.21
		c-3.134-0.782-6.222-1.737-9.25-2.859c-1.588-0.577-3.099-1.346-4.5-2.29c-7.35-5.391-25.771-6-26.48-6l0,0
		c-0.002-0.023-0.002-0.047,0-0.07v-0.09c0.026-0.42,0.026-0.841,0-1.26c0-0.4,0-0.87-0.09-1.4c0-0.16,0-0.33-0.069-0.5
		c-0.051-0.36-0.11-0.74-0.2-1.14c-0.03-0.179-0.07-0.355-0.12-0.53c-0.29-1.205-0.709-2.375-1.25-3.49
		c-0.07-0.16-0.16-0.33-0.24-0.49c-0.49-0.923-1.059-1.804-1.7-2.63c-0.13-0.17-0.27-0.35-0.42-0.52
		c-0.819-0.966-1.729-1.851-2.72-2.641c-0.27-0.21-0.55-0.43-0.84-0.63c-0.162-0.131-0.332-0.251-0.51-0.359l-0.891-0.58l-0.83-0.48
		c-0.729-0.399-1.5-0.79-2.34-1.16c-0.26-0.119-0.54-0.229-0.82-0.34c-0.279-0.109-0.72-0.28-1.09-0.42h-0.06l-0.75-0.3
		c-0.57-0.189-1.15-0.359-1.76-0.53l-0.931-0.239l-1-0.23l-1-0.21c-1-0.2-2.069-0.38-3.189-0.52l-1.141-0.141l-1.17-0.12l-1.21-0.1
		l-1.72-0.1l-2-0.07c-8.82-0.001-17.616,0.935-26.24,2.79c-5.99-1.333-12.127-1.897-18.26-1.681h-0.87l-1,0.061h-0.64l-1.29,0.12
		c-0.431,0-0.87,0.09-1.3,0.149c-0.431,0.061-0.881,0.11-1.311,0.181l-0.66,0.109c-0.649,0.11-1.31,0.23-2,0.37
		c-0.22,0.04-0.439,0.09-0.659,0.15c-0.87,0.189-1.74,0.42-2.601,0.68c-0.43,0.12-0.859,0.26-1.29,0.41
		c-0.22,0.06-0.43,0.14-0.64,0.22l-0.641,0.23l-0.63,0.25l-0.75,0.3c-0.38,0.16-0.75,0.33-1.12,0.51c-0.21,0.09-0.42,0.19-0.619,0.3
		c-0.2,0.11-0.41,0.2-0.601,0.311c-2.261,1.168-4.351,2.642-6.21,4.38l-0.51,0.49l-0.5,0.51c-0.17,0.17-0.33,0.35-0.49,0.53
		c-0.651,0.712-1.26,1.464-1.82,2.25c-0.159,0.21-0.31,0.42-0.46,0.64c-0.634,0.936-1.209,1.911-1.72,2.92
		c-0.13,0.24-0.25,0.49-0.37,0.73c-0.815,1.689-1.485,3.445-2,5.25c-0.187,0.666-0.356,1.333-0.51,2c-0.229,1-21.17,9.34-38.73,16.1
		c-4.669,1.8-9.07,3.43-12.75,4.66c-1.07,0.36-2.07,0.689-3,1c-2.018,0.729-4.117,1.213-6.25,1.439c-1.006,0.017-2.009,0.11-3,0.28
		c-8.07,1.311-21.9,7-23.41,12.71c-0.123,0.456-0.157,0.932-0.1,1.4c0,0,0,0.07,0,0.11c1,7-6,6-6,6s-2.5,18.5-6,23.5
		c-2.53,3.6-4.26,11.63-4.48,17.689l0,0c-0.125,1.888,0.022,3.784,0.44,5.63c0,0.05,0,0.101,0,0.141c0.4,1.34-0.56,5-2.19,9.689
		c-1.77,5.15-4.35,11.55-6.83,17.59c-3.74,9.12-7.26,17.4-7.48,19.221c-0.09,0.81-0.35,2.26-0.71,4.13c-1.46,7.62-4.7,22.13-6.3,28
		c-1.19,4.38-2.92,10.38-4.11,14.5c0,0.12-0.07,0.239-0.1,0.35l44.83-0.44v0.841h0.14H349.74z"/>
	<path opacity="0.1" enable-background="new    " d="M366.1,434.66c0,0,57,29.5,77.5,26L366.1,434.66z"/>
	<path opacity="0.1" enable-background="new    " d="M482.1,422.66c0,0,55.5,18,74,20.5S482.1,422.66,482.1,422.66z"/>
	<path opacity="0.1" enable-background="new    " d="M543.66,364.74c-29,5.34-83.601,4.189-107.2,3.38
		c8.65-31,50.83-20.46,50.83-20.46C539.5,337.24,543.5,358.86,543.66,364.74z"/>
	<path fill="#1B1B1B" d="M543.66,362.74c-29,5.34-83.601,4.189-107.2,3.38c8.65-31,50.83-20.46,50.83-20.46
		C539.5,335.24,543.5,356.86,543.66,362.74z"/>
	<path fill="#FBBEBE" d="M697.6,499.41c0,0,34.16-5.25,34.83,9.75s-17.42,25.479-17.42,25.479L697.6,499.41z"/>
	<path opacity="0.1" enable-background="new    " d="M525.95,328.54c-1.47,0.656-2.972,1.237-4.5,1.74
		c-10.78,3.72-21.65,7.47-33,8.83c-11.351,1.359-23.26,0.159-33.16-5.5c-1.039-0.588-2.041-1.239-3-1.95
		c-1.1-22-3.75-43.5-3.75-43.5s87-41,77-8.5C521.56,292.79,522.91,311.23,525.95,328.54z"/>
	<path fill="#3F3D56" d="M473.18,191.93c-2.894,0.764-5.979,0.115-8.319-1.75l2.08,2.89c-2.481,0.287-4.963-0.537-6.78-2.25
		c-0.188,2.587-0.081,5.188,0.32,7.75c-3.442,0.166-6.831-0.897-9.561-3c-0.109,1.848,0.944,3.568,2.64,4.31
		c-7.151-0.854-13.827,3.729-15.6,10.71l5.22,0.48c-4.103,0.876-7.784,3.123-10.439,6.37c-1.601,2-2.82,4.56-2.12,7
		s4.08,4,5.92,2.26c-5.298,6.323-7.531,14.665-6.1,22.79c0.475,1.71,0.63,3.493,0.46,5.26c-0.33,1.65-1.37,3.08-1.891,4.69
		c-1,2.92-0.05,6.09,0.84,9l4.69,15.42c1.7,5.57,3.39,11.149,5.61,16.539c1.571,3.408,2.908,6.92,4,10.511
		c1.26,4.84,1.31,10.14,4,14.37c1.843,2.662,4.308,4.834,7.18,6.33c9.89,5.659,21.84,6.859,33.16,5.5
		c11.319-1.36,22.18-5.11,32.949-8.83c2.393-0.721,4.689-1.729,6.841-3c7.449-4.88,9.109-14.86,10.5-23.65
		c1.55-9.8,3.62-19.58,7.29-28.8c2.18-5.49,5-11.06,4.52-16.94c-0.61-7.81-6.79-14.14-8.32-21.82
		c-0.512-2.567-0.488-5.212,0.07-7.77c0.475-1.523,0.74-3.104,0.79-4.7c-0.17-3.22-2.81-5.7-5.29-7.77
		c-5.38-4.493-10.934-8.74-16.66-12.74c-0.29-2,2.431-2.86,3.66-4.44c1.74-2.23-0.06-5.77-2.7-6.81c-2.64-1.04-5.6-0.36-8.35,0.33
		c0.46-3.61-2.095-6.91-5.705-7.369c-2.205-0.281-4.402,0.569-5.845,2.259c-1.487-3.411-4.715-5.741-8.42-6.08
		c-6.63-0.52-6.761,4.55-11,7.34c-4.24,2.79-7.74-0.89-11-3.57C470.601,185.833,471.119,189.333,473.18,191.93z"/>
	<path fill="#1B1B1B" d="M722.93,529.41c0,0-0.89,2.12-2.529,5.189c-2.481,4.724-5.501,9.143-9,13.17l-0.271,0.29h-1.62l-57.74,0.53
		h-1.38l-0.17-0.2l-11.2-13.29l-4.22-5.01l-0.17-0.21l-0.359-0.42l-0.2-0.24l-0.261-0.31l-8.21-9.74l3-12.5l5.11-21.06l0.13-0.511
		l1-4l0.71-3l2.38-9.779l8.16-33.65l14.5,7.5l15.29,27l8.21,14.5h4.5c0.85,0,2.8,1.64,4.76,3.53c0.7,0.67,1.4,1.38,2,2
		c1.78,1.84,3.19,3.42,3.19,3.42s7.29,0.16,9.25,5.899c0.102,0.278,0.185,0.563,0.25,0.851c0.65,2.256,1.497,4.451,2.53,6.56
		c1.29,2.811,2.91,6,4.55,9.19c3.05,5.85,6.149,11.42,7.29,13.439l0.14,0.25L722.93,529.41z"/>
	<path opacity="0.1" enable-background="new    " d="M637.03,484.26l-0.101,1.43v0.101l-0.17,2.3l-1.33,18.51L633.82,528.9
		l-0.46,6.279l-1,13.44v0.17l-107,1l-175.59,1.899v0.841h-0.14v-0.841v-0.279l0.45-14.36l0.86-28.06l0.74-23.79l0.07-2.37
		c0.178-5.813,5.034-10.381,10.847-10.203c0.191,0.006,0.382,0.017,0.573,0.033c4.72,0.399,10.85,0.89,18.18,1.41l3,0.22
		c42.33,2.939,120.56,6.74,199.5,2c1.66-0.09,3.33-0.19,5-0.311c12.24-0.77,24.471-1.76,36.58-3
		c5.784-0.605,10.964,3.592,11.57,9.376c0.064,0.616,0.074,1.236,0.03,1.854V484.26z"/>
	<path fill="#3F3D56" d="M349.74,552.53v-0.841l175.62-1.909l107-1h0.3v-0.17l1-13.44l0.43-6l1.641-22.61l1.289-17.899v-0.44
		c0.061-0.824,0.023-1.653-0.109-2.47c0.006-0.033,0.006-0.066,0-0.1c-0.274-1.688-0.962-3.282-2-4.641
		c-2.238-2.87-5.8-4.383-9.42-4c-12.11,1.24-24.34,2.23-36.58,3c-1.67,0.12-3.34,0.221-5,0.311c-78.94,4.689-157.17,0.89-199.5-2
		l-3-0.221c-7.33-0.52-13.46-1-18.18-1.409c-5.378-0.454-10.23,3.228-11.24,8.529c-0.101,0.542-0.161,1.09-0.18,1.641l-0.68,22.16
		l-0.93,28.069l-0.44,14.36v0.28v0.84L349.74,552.53z"/>
	<path opacity="0.1" enable-background="new    " d="M637.33,491.27l-1.23,15.33l-1.83,22.851l-0.46,5.72l-1,12.81l-0.06,0.641v0.17
		l0,0l-0.15,1.479l0.11-1.479h-0.29l-107,1l-175.65,1.899v-0.279l0.49-14.36l1-28.06l0.64-18.65c0.064-2.155,1.216-4.132,3.06-5.25
		c1.132-0.694,2.457-1.009,3.78-0.9c2.1,0.171,4.68,0.37,7.69,0.591c4.89,0.359,10.92,0.779,17.94,1.22c13,0.82,29.31,1.7,48,2.42
		c52,2,122.2,2.67,188.88-3.17c3-0.26,6.1-0.55,9.13-0.84c1.199-0.12,2.408,0.109,3.48,0.66c0.304,0.15,0.592,0.332,0.859,0.539
		c0.871,0.631,1.561,1.479,2,2.461c0.103,0.194,0.186,0.398,0.25,0.609C637.271,489.509,637.393,490.391,637.33,491.27z"/>
	<path opacity="0.1" enable-background="new    " d="M298.1,504.96v3.19c0.001,2.367-1.361,4.523-3.5,5.539l-40.1,0.771
		c-2.178-0.998-3.573-3.175-3.57-5.57v-3L298.1,504.96z"/>
	<polygon fill="#3F3D56" points="298.6,515.57 246.35,516.57 246.35,507.9 298.6,506.9 	"/>
	<polygon opacity="0.1" enable-background="new    " points="298.6,515.57 246.35,516.57 246.35,507.9 298.6,506.9 	"/>
	<polygon fill="#3F3D56" points="300.6,515.57 248.35,516.57 248.35,507.9 300.6,506.9 	"/>
	<g opacity="0.1">
		<path d="M473.59,188.65c-0.977-1.27-1.626-2.76-1.89-4.34c-0.241,1.544-0.097,3.125,0.42,4.6
			C472.616,188.864,473.108,188.777,473.59,188.65z"/>
		<path d="M460.89,195.29c-0.188-1.226-0.312-2.461-0.37-3.7c0,1.23,0,2.47,0,3.71L460.89,195.29z"/>
		<path d="M542.39,228.66c0.056-0.891,0.176-1.777,0.36-2.65c0.473-1.521,0.742-3.098,0.8-4.69c-0.022-0.357-0.076-0.712-0.16-1.06
			c-0.17,0.92-0.439,1.84-0.64,2.75C542.351,224.865,542.229,226.769,542.39,228.66z"/>
		<path d="M521.59,197.76l1.09,0.79c0.919-0.665,1.779-1.407,2.57-2.22c0.766-1.059,0.91-2.446,0.38-3.64
			c-0.1,0.229-0.228,0.443-0.38,0.64C524.02,194.91,521.3,195.78,521.59,197.76z"/>
		<path d="M439.42,207.38c-0.364,0.729-0.656,1.493-0.87,2.28c1.564-0.874,3.249-1.51,5-1.89L439.42,207.38z"/>
		<path d="M453.21,196.5c-0.657-0.362-1.285-0.773-1.88-1.23c-0.025,0.396,0.005,0.792,0.09,1.18
			C452.017,196.421,452.615,196.438,453.21,196.5z"/>
		<path d="M550.98,255.42c-0.41,4.85-2.671,9.52-4.5,14.12c-3.671,9.22-5.74,19-7.29,28.811c-1.391,8.789-3,18.77-10.5,23.64
			c-2.144,1.28-4.438,2.288-6.83,3c-10.78,3.729-21.65,7.47-33,8.83c-11.351,1.359-23.261,0.17-33.16-5.49
			c-2.87-1.498-5.334-3.67-7.18-6.33c-2.671-4.23-2.721-9.53-4-14.37c-1.092-3.594-2.429-7.109-4-10.52
			c-2.211-5.381-3.91-11-5.601-16.53c-1.566-5.14-3.13-10.283-4.689-15.43c-0.515-1.548-0.896-3.137-1.141-4.75
			c-0.39,2.56,0.37,5.24,1.141,7.75c1.56,5.153,3.123,10.296,4.689,15.43c1.69,5.569,3.391,11.149,5.601,16.53
			c1.571,3.41,2.908,6.926,4,10.52c1.26,4.84,1.31,10.14,4,14.37c1.846,2.66,4.31,4.832,7.18,6.33c9.899,5.66,21.84,6.85,33.16,5.49
			c11.319-1.36,22.18-5.101,33-8.83c2.393-0.712,4.687-1.72,6.83-3c7.449-4.87,9.109-14.851,10.5-23.64
			c1.55-9.811,3.619-19.591,7.29-28.811c2.18-5.48,5-11.05,4.52-16.94C551,255.54,550.98,255.48,550.98,255.42z"/>
		<path d="M431.29,251.55c0,0,0-0.07,0-0.11c0.181-1.763,0.024-3.545-0.46-5.25c-0.199-1.097-0.33-2.206-0.39-3.32
			c-0.115,2.114,0.016,4.235,0.39,6.32C430.99,249.97,431.17,250.76,431.29,251.55z"/>
		<path d="M434.34,227.09c0.77-1.292,1.643-2.52,2.61-3.67c-1.83,1.75-5.21,0.19-5.92-2.24c-0.262,0.983-0.262,2.017,0,3
			C431.531,225.674,432.794,226.784,434.34,227.09z"/>
	</g>
	<path opacity="0.1" enable-background="new    " d="M684.1,483.66c0,0,3.17,11.5,0,21.5S684.1,483.66,684.1,483.66z"/>
	<path opacity="0.1" enable-background="new    " d="M697.6,495.39c0,0,1.33,14.601-1.67,17.19S697.6,495.39,697.6,495.39z"/>
	<line fill="none" stroke="#1B1B1B" stroke-width="2" stroke-miterlimit="10" x1="198.99" y1="342.86" x2="300.6" y2="341.86"/>
	<line fill="none" stroke="#1B1B1B" stroke-width="2" stroke-miterlimit="10" x1="198.99" y1="355.33" x2="300.6" y2="354.34"/>
	<line fill="none" stroke="#1B1B1B" stroke-width="2" stroke-miterlimit="10" x1="198.99" y1="367.81" x2="300.6" y2="366.81"/>
</g>
<g id="Layer_2">
	<polygon fill="#D4DFEC" points="269.975,125.792 183.85,120.137 185.636,108.548 270.736,114.19 	"/>
	<polygon fill="#D4DFEC" points="704.248,128.875 790.373,123.219 788.586,111.63 703.486,117.272 	"/>
	<polygon fill="#D4DFEC" points="651.748,164.948 737.873,159.292 736.086,147.704 650.986,153.346 	"/>
	<polygon fill="#D4DFEC" points="712.248,200.212 798.373,194.556 796.586,182.967 711.486,188.61 	"/>
	<polygon fill="#D4DFEC" points="278.058,151.915 191.933,146.259 193.719,134.67 278.819,140.313 	"/>
	<polygon fill="#D4DFEC" points="265.392,175.659 179.267,170.003 181.053,158.415 266.153,164.057 	"/>
	<polygon fill="#D4DFEC" points="321.5,218.283 235.376,212.627 237.162,201.038 322.262,206.681 	"/>
	<polygon fill="#D4DFEC" points="316.725,245.905 230.6,240.249 232.386,228.66 317.486,234.303 	"/>
	<rect x="400.16" y="125.792" fill="#D4DFEC" width="89.9" height="13"/>
	<rect x="481.391" y="151.915" fill="#D4DFEC" width="89.9" height="13"/>
	<rect x="618.226" y="333.085" fill="#1B1B1B" width="136.704" height="4.247"/>
	<rect x="617.397" y="356.841" fill="#1B1B1B" width="80.496" height="4.247"/>
</g>
</svg>
